<mxfile host="app.diagrams.net" modified="2023-01-12T09:08:46.558Z" agent="5.0 (Macintosh; Intel Mac OS X 10_15_7) AppleWebKit/537.36 (KHTML, like Gecko) Chrome/108.0.0.0 Safari/537.36" etag="zhpSF-1c9d2G3OWkNqdn" version="20.6.0" type="github" pages="7">
  <diagram id="FAg0dQYX_zSHLm4K_JZT" name="Router 现状">
    <mxGraphModel dx="1933" dy="1783" grid="1" gridSize="10" guides="1" tooltips="1" connect="1" arrows="1" fold="1" page="1" pageScale="1" pageWidth="827" pageHeight="1169" math="0" shadow="0">
      <root>
        <mxCell id="0" />
        <mxCell id="1" parent="0" />
        <mxCell id="hnnwa67ViJj3flrmdZnM-12" style="edgeStyle=orthogonalEdgeStyle;rounded=0;orthogonalLoop=1;jettySize=auto;html=1;" parent="1" source="hnnwa67ViJj3flrmdZnM-2" target="hnnwa67ViJj3flrmdZnM-4" edge="1">
          <mxGeometry relative="1" as="geometry" />
        </mxCell>
        <mxCell id="hnnwa67ViJj3flrmdZnM-2" value="DDRouterMan" style="whiteSpace=wrap;html=1;" parent="1" vertex="1">
          <mxGeometry x="110" y="60" width="120" height="60" as="geometry" />
        </mxCell>
        <mxCell id="hnnwa67ViJj3flrmdZnM-13" style="edgeStyle=orthogonalEdgeStyle;rounded=0;orthogonalLoop=1;jettySize=auto;html=1;entryX=0;entryY=0.5;entryDx=0;entryDy=0;" parent="1" source="hnnwa67ViJj3flrmdZnM-3" target="hnnwa67ViJj3flrmdZnM-6" edge="1">
          <mxGeometry relative="1" as="geometry" />
        </mxCell>
        <mxCell id="hnnwa67ViJj3flrmdZnM-3" value="ESRouterManager" style="whiteSpace=wrap;html=1;" parent="1" vertex="1">
          <mxGeometry x="110" y="205" width="120" height="60" as="geometry" />
        </mxCell>
        <mxCell id="hnnwa67ViJj3flrmdZnM-16" style="edgeStyle=orthogonalEdgeStyle;rounded=0;orthogonalLoop=1;jettySize=auto;html=1;entryX=0;entryY=0.5;entryDx=0;entryDy=0;" parent="1" source="hnnwa67ViJj3flrmdZnM-4" target="hnnwa67ViJj3flrmdZnM-15" edge="1">
          <mxGeometry relative="1" as="geometry" />
        </mxCell>
        <mxCell id="hnnwa67ViJj3flrmdZnM-4" value="esapp://h5&lt;br&gt;esapp://native" style="whiteSpace=wrap;html=1;" parent="1" vertex="1">
          <mxGeometry x="330" y="60" width="120" height="60" as="geometry" />
        </mxCell>
        <mxCell id="hnnwa67ViJj3flrmdZnM-20" style="edgeStyle=orthogonalEdgeStyle;rounded=0;orthogonalLoop=1;jettySize=auto;html=1;entryX=0;entryY=0.5;entryDx=0;entryDy=0;" parent="1" source="hnnwa67ViJj3flrmdZnM-5" target="hnnwa67ViJj3flrmdZnM-19" edge="1">
          <mxGeometry relative="1" as="geometry" />
        </mxCell>
        <mxCell id="hnnwa67ViJj3flrmdZnM-5" value="ONERouter" style="whiteSpace=wrap;html=1;" parent="1" vertex="1">
          <mxGeometry x="110" y="341" width="120" height="60" as="geometry" />
        </mxCell>
        <mxCell id="hnnwa67ViJj3flrmdZnM-14" style="edgeStyle=orthogonalEdgeStyle;rounded=0;orthogonalLoop=1;jettySize=auto;html=1;entryX=0;entryY=0.5;entryDx=0;entryDy=0;" parent="1" source="hnnwa67ViJj3flrmdZnM-6" target="hnnwa67ViJj3flrmdZnM-7" edge="1">
          <mxGeometry relative="1" as="geometry" />
        </mxCell>
        <mxCell id="hnnwa67ViJj3flrmdZnM-6" value="esapp://h5&lt;br&gt;esapp://native&lt;br&gt;esapp://flutter" style="whiteSpace=wrap;html=1;" parent="1" vertex="1">
          <mxGeometry x="330" y="200" width="120" height="70" as="geometry" />
        </mxCell>
        <mxCell id="hnnwa67ViJj3flrmdZnM-7" value="九宫格&lt;br&gt;行前审批/差旅&lt;br&gt;用车服务&lt;br&gt;APNS" style="whiteSpace=wrap;html=1;" parent="1" vertex="1">
          <mxGeometry x="530" y="200" width="120" height="70" as="geometry" />
        </mxCell>
        <mxCell id="hnnwa67ViJj3flrmdZnM-9" style="edgeStyle=orthogonalEdgeStyle;rounded=0;orthogonalLoop=1;jettySize=auto;html=1;entryX=0;entryY=0.5;entryDx=0;entryDy=0;" parent="1" source="hnnwa67ViJj3flrmdZnM-8" target="hnnwa67ViJj3flrmdZnM-2" edge="1">
          <mxGeometry relative="1" as="geometry" />
        </mxCell>
        <mxCell id="hnnwa67ViJj3flrmdZnM-11" style="edgeStyle=orthogonalEdgeStyle;rounded=0;orthogonalLoop=1;jettySize=auto;html=1;entryX=0;entryY=0.5;entryDx=0;entryDy=0;" parent="1" source="hnnwa67ViJj3flrmdZnM-8" target="hnnwa67ViJj3flrmdZnM-5" edge="1">
          <mxGeometry relative="1" as="geometry" />
        </mxCell>
        <mxCell id="hnnwa67ViJj3flrmdZnM-28" style="edgeStyle=orthogonalEdgeStyle;rounded=0;orthogonalLoop=1;jettySize=auto;html=1;entryX=0;entryY=0.5;entryDx=0;entryDy=0;" parent="1" source="hnnwa67ViJj3flrmdZnM-8" target="hnnwa67ViJj3flrmdZnM-23" edge="1">
          <mxGeometry relative="1" as="geometry" />
        </mxCell>
        <mxCell id="hnnwa67ViJj3flrmdZnM-29" style="edgeStyle=orthogonalEdgeStyle;rounded=0;orthogonalLoop=1;jettySize=auto;html=1;entryX=0;entryY=0.5;entryDx=0;entryDy=0;" parent="1" source="hnnwa67ViJj3flrmdZnM-8" target="hnnwa67ViJj3flrmdZnM-3" edge="1">
          <mxGeometry relative="1" as="geometry" />
        </mxCell>
        <mxCell id="hnnwa67ViJj3flrmdZnM-8" value="现有 Router" style="whiteSpace=wrap;html=1;" parent="1" vertex="1">
          <mxGeometry x="-180" y="140" width="120" height="60" as="geometry" />
        </mxCell>
        <mxCell id="hnnwa67ViJj3flrmdZnM-15" value="自动化决策&lt;br&gt;切换企业&lt;br&gt;撤回授权" style="whiteSpace=wrap;html=1;" parent="1" vertex="1">
          <mxGeometry x="520" y="60" width="120" height="60" as="geometry" />
        </mxCell>
        <mxCell id="hnnwa67ViJj3flrmdZnM-17" value="业务耦合严重" style="text;html=1;align=center;verticalAlign=middle;resizable=0;points=[];autosize=1;strokeColor=none;fillColor=none;" parent="1" vertex="1">
          <mxGeometry x="540" y="270" width="100" height="30" as="geometry" />
        </mxCell>
        <mxCell id="hnnwa67ViJj3flrmdZnM-18" value="业务关联性低" style="text;html=1;align=center;verticalAlign=middle;resizable=0;points=[];autosize=1;strokeColor=none;fillColor=none;" parent="1" vertex="1">
          <mxGeometry x="530" y="125" width="100" height="30" as="geometry" />
        </mxCell>
        <mxCell id="hnnwa67ViJj3flrmdZnM-22" style="edgeStyle=orthogonalEdgeStyle;rounded=0;orthogonalLoop=1;jettySize=auto;html=1;entryX=0;entryY=0.5;entryDx=0;entryDy=0;" parent="1" source="hnnwa67ViJj3flrmdZnM-19" target="hnnwa67ViJj3flrmdZnM-21" edge="1">
          <mxGeometry relative="1" as="geometry" />
        </mxCell>
        <mxCell id="hnnwa67ViJj3flrmdZnM-19" value="esapp://anycar" style="whiteSpace=wrap;html=1;" parent="1" vertex="1">
          <mxGeometry x="330" y="341" width="120" height="60" as="geometry" />
        </mxCell>
        <mxCell id="hnnwa67ViJj3flrmdZnM-21" value="等待应答6.0" style="whiteSpace=wrap;html=1;" parent="1" vertex="1">
          <mxGeometry x="520" y="341" width="120" height="60" as="geometry" />
        </mxCell>
        <mxCell id="hnnwa67ViJj3flrmdZnM-26" style="edgeStyle=orthogonalEdgeStyle;rounded=0;orthogonalLoop=1;jettySize=auto;html=1;entryX=0;entryY=0.5;entryDx=0;entryDy=0;" parent="1" source="hnnwa67ViJj3flrmdZnM-23" target="hnnwa67ViJj3flrmdZnM-24" edge="1">
          <mxGeometry relative="1" as="geometry" />
        </mxCell>
        <mxCell id="hnnwa67ViJj3flrmdZnM-23" value="DEAppSchemeManager" style="whiteSpace=wrap;html=1;" parent="1" vertex="1">
          <mxGeometry x="110" y="-70" width="140" height="60" as="geometry" />
        </mxCell>
        <mxCell id="hnnwa67ViJj3flrmdZnM-27" style="edgeStyle=orthogonalEdgeStyle;rounded=0;orthogonalLoop=1;jettySize=auto;html=1;entryX=0;entryY=0.5;entryDx=0;entryDy=0;" parent="1" source="hnnwa67ViJj3flrmdZnM-24" target="hnnwa67ViJj3flrmdZnM-25" edge="1">
          <mxGeometry relative="1" as="geometry" />
        </mxCell>
        <mxCell id="hnnwa67ViJj3flrmdZnM-24" value="didies://passenger&lt;br&gt;esapp://flutter" style="whiteSpace=wrap;html=1;" parent="1" vertex="1">
          <mxGeometry x="330" y="-70" width="120" height="60" as="geometry" />
        </mxCell>
        <mxCell id="hnnwa67ViJj3flrmdZnM-25" value="一键报警&lt;br&gt;机酒火" style="whiteSpace=wrap;html=1;" parent="1" vertex="1">
          <mxGeometry x="520" y="-70" width="120" height="60" as="geometry" />
        </mxCell>
        <mxCell id="hnnwa67ViJj3flrmdZnM-30" value="业务耦合严重" style="text;html=1;align=center;verticalAlign=middle;resizable=0;points=[];autosize=1;strokeColor=none;fillColor=none;" parent="1" vertex="1">
          <mxGeometry x="530" y="-10" width="100" height="30" as="geometry" />
        </mxCell>
      </root>
    </mxGraphModel>
  </diagram>
  <diagram id="ju3ko_v3aJ4fjFX5elj3" name="Router 标准">
    <mxGraphModel dx="1106" dy="614" grid="1" gridSize="10" guides="1" tooltips="1" connect="1" arrows="1" fold="1" page="1" pageScale="1" pageWidth="827" pageHeight="1169" math="0" shadow="0">
      <root>
        <mxCell id="0" />
        <mxCell id="1" parent="0" />
        <mxCell id="RtBkMM-qtlx18es-8qQh-1" value="&lt;font color=&quot;#9999ff&quot;&gt;scheme://&amp;nbsp; &amp;nbsp;&amp;nbsp;&lt;/font&gt;&lt;font color=&quot;#f19c99&quot;&gt;host&amp;nbsp; &amp;nbsp; &amp;nbsp; &amp;nbsp; &amp;nbsp;&lt;/font&gt;&lt;font color=&quot;#ffd966&quot;&gt;/path&amp;nbsp; &amp;nbsp; &amp;nbsp; &amp;nbsp; &amp;nbsp;&amp;nbsp;&lt;/font&gt;&lt;font color=&quot;#67ab9f&quot;&gt;{/subPath}&lt;/font&gt;&lt;font color=&quot;#ffd966&quot;&gt;&amp;nbsp; &amp;nbsp;&lt;/font&gt;&lt;font color=&quot;#97d077&quot;&gt;?query&lt;/font&gt;" style="text;html=1;align=center;verticalAlign=middle;resizable=0;points=[];autosize=1;strokeColor=none;fillColor=none;fontSize=18;fontStyle=1;spacingLeft=1;labelBorderColor=none;" parent="1" vertex="1">
          <mxGeometry x="176" y="165" width="470" height="40" as="geometry" />
        </mxCell>
        <mxCell id="RtBkMM-qtlx18es-8qQh-2" value="esapp" style="text;html=1;align=center;verticalAlign=middle;resizable=0;points=[];autosize=1;strokeColor=none;fillColor=none;fontSize=18;fontColor=#9999FF;" parent="1" vertex="1">
          <mxGeometry x="200" y="236" width="70" height="40" as="geometry" />
        </mxCell>
        <mxCell id="RtBkMM-qtlx18es-8qQh-3" value="miniapp" style="text;html=1;align=center;verticalAlign=middle;resizable=0;points=[];autosize=1;strokeColor=none;fillColor=none;fontSize=18;fontColor=#F19C99;" parent="1" vertex="1">
          <mxGeometry x="270" y="236" width="90" height="40" as="geometry" />
        </mxCell>
        <mxCell id="RtBkMM-qtlx18es-8qQh-4" value="train&lt;br&gt;hotel&lt;br&gt;flight&lt;br&gt;..." style="text;html=1;align=left;verticalAlign=middle;resizable=0;points=[];autosize=1;strokeColor=none;fillColor=none;fontSize=18;fontColor=#F19C99;" parent="1" vertex="1">
          <mxGeometry x="384" y="216" width="60" height="100" as="geometry" />
        </mxCell>
        <mxCell id="RtBkMM-qtlx18es-8qQh-5" value="" style="endArrow=none;html=1;rounded=0;fontSize=18;fontColor=#F19C99;exitX=0.031;exitY=1.1;exitDx=0;exitDy=0;exitPerimeter=0;dashed=1;elbow=vertical;entryX=0.98;entryY=1.025;entryDx=0;entryDy=0;entryPerimeter=0;" parent="1" target="RtBkMM-qtlx18es-8qQh-1" edge="1">
          <mxGeometry width="50" height="50" relative="1" as="geometry">
            <mxPoint x="194.92000000000007" y="204" as="sourcePoint" />
            <mxPoint x="500" y="205" as="targetPoint" />
          </mxGeometry>
        </mxCell>
        <mxCell id="RtBkMM-qtlx18es-8qQh-6" value="index&lt;br&gt;list&lt;br&gt;detail&lt;br&gt;..." style="text;html=1;align=center;verticalAlign=middle;resizable=0;points=[];autosize=1;strokeColor=none;fillColor=none;fontSize=18;fontColor=#67AB9F;" parent="1" vertex="1">
          <mxGeometry x="470" y="216" width="70" height="100" as="geometry" />
        </mxCell>
        <mxCell id="HLuZ0eMC7Kemc1DOu5Si-1" value="" style="endArrow=none;html=1;rounded=0;fontSize=18;fontColor=#F19C99;exitX=0.031;exitY=1.1;exitDx=0;exitDy=0;exitPerimeter=0;dashed=1;elbow=vertical;entryX=0.98;entryY=1.025;entryDx=0;entryDy=0;entryPerimeter=0;" parent="1" edge="1">
          <mxGeometry width="50" height="50" relative="1" as="geometry">
            <mxPoint x="190.16000000000008" y="330" as="sourcePoint" />
            <mxPoint x="631.8399999999999" y="332" as="targetPoint" />
          </mxGeometry>
        </mxCell>
        <mxCell id="HLuZ0eMC7Kemc1DOu5Si-2" value="esapp" style="text;html=1;align=center;verticalAlign=middle;resizable=0;points=[];autosize=1;strokeColor=none;fillColor=none;fontSize=18;fontColor=#9999FF;" parent="1" vertex="1">
          <mxGeometry x="200" y="380" width="70" height="40" as="geometry" />
        </mxCell>
        <mxCell id="HLuZ0eMC7Kemc1DOu5Si-3" value="generic" style="text;html=1;align=center;verticalAlign=middle;resizable=0;points=[];autosize=1;strokeColor=none;fillColor=none;fontSize=18;fontColor=#F19C99;" parent="1" vertex="1">
          <mxGeometry x="275" y="380" width="80" height="40" as="geometry" />
        </mxCell>
        <mxCell id="HLuZ0eMC7Kemc1DOu5Si-4" value="web&lt;br&gt;anycar&lt;br&gt;..." style="text;html=1;align=left;verticalAlign=middle;resizable=0;points=[];autosize=1;strokeColor=none;fillColor=none;fontSize=18;fontColor=#F19C99;" parent="1" vertex="1">
          <mxGeometry x="384" y="360" width="80" height="80" as="geometry" />
        </mxCell>
      </root>
    </mxGraphModel>
  </diagram>
  <diagram id="S6r-Mkfs9X3XJWZTweF_" name="旧 Router 适配">
    <mxGraphModel dx="1933" dy="614" grid="1" gridSize="10" guides="1" tooltips="1" connect="1" arrows="1" fold="1" page="1" pageScale="1" pageWidth="827" pageHeight="1169" math="0" shadow="0">
      <root>
        <mxCell id="0" />
        <mxCell id="1" parent="0" />
        <mxCell id="8nkHCdUd3SIOLFDqEudt-15" style="edgeStyle=none;rounded=0;orthogonalLoop=1;jettySize=auto;html=1;dashed=1;fontSize=18;fontColor=#67AB9F;elbow=vertical;" parent="1" source="8nkHCdUd3SIOLFDqEudt-1" edge="1">
          <mxGeometry relative="1" as="geometry">
            <mxPoint x="310" y="225" as="targetPoint" />
          </mxGeometry>
        </mxCell>
        <mxCell id="8nkHCdUd3SIOLFDqEudt-1" value="&lt;pre data-pm-slice=&quot;1 1 []&quot; name=&quot;品类Scheme 梳理&quot; height=&quot;auto&quot;&gt;&lt;code&gt;didies://flutter/hotel&lt;/code&gt;&lt;/pre&gt;" style="text;html=1;align=center;verticalAlign=middle;resizable=0;points=[];autosize=1;strokeColor=none;fillColor=none;fontSize=18;fontColor=#67AB9F;spacing=0;" parent="1" vertex="1">
          <mxGeometry x="-16" y="190" width="260" height="70" as="geometry" />
        </mxCell>
        <mxCell id="8nkHCdUd3SIOLFDqEudt-9" style="edgeStyle=none;rounded=0;orthogonalLoop=1;jettySize=auto;html=1;entryX=-0.016;entryY=0.525;entryDx=0;entryDy=0;entryPerimeter=0;dashed=1;fontSize=18;fontColor=#67AB9F;elbow=vertical;exitX=1;exitY=0.311;exitDx=0;exitDy=0;exitPerimeter=0;" parent="1" edge="1">
          <mxGeometry relative="1" as="geometry">
            <mxPoint x="447" y="225.98000000000002" as="sourcePoint" />
            <mxPoint x="513.96" y="225.75" as="targetPoint" />
          </mxGeometry>
        </mxCell>
        <mxCell id="8nkHCdUd3SIOLFDqEudt-10" style="edgeStyle=none;rounded=0;orthogonalLoop=1;jettySize=auto;html=1;entryX=0.004;entryY=0.625;entryDx=0;entryDy=0;entryPerimeter=0;dashed=1;fontSize=18;fontColor=#67AB9F;elbow=vertical;exitX=1.017;exitY=0.694;exitDx=0;exitDy=0;exitPerimeter=0;" parent="1" edge="1">
          <mxGeometry relative="1" as="geometry">
            <mxPoint x="447.03999999999996" y="289.91999999999996" as="sourcePoint" />
            <mxPoint x="515.96" y="290" as="targetPoint" />
          </mxGeometry>
        </mxCell>
        <mxCell id="8nkHCdUd3SIOLFDqEudt-2" value="" style="whiteSpace=wrap;html=1;labelBorderColor=none;fontSize=18;fontColor=#67AB9F;" parent="1" vertex="1">
          <mxGeometry x="320" y="170" width="120" height="230" as="geometry" />
        </mxCell>
        <mxCell id="8nkHCdUd3SIOLFDqEudt-4" value="esapp://miniapp/hotel" style="text;html=1;align=center;verticalAlign=middle;resizable=0;points=[];autosize=1;strokeColor=none;fillColor=none;fontSize=18;fontColor=#67AB9F;spacing=0;" parent="1" vertex="1">
          <mxGeometry x="510" y="210" width="190" height="30" as="geometry" />
        </mxCell>
        <mxCell id="8nkHCdUd3SIOLFDqEudt-5" value="esapp://miniapp/flight/detail" style="text;html=1;align=center;verticalAlign=middle;resizable=0;points=[];autosize=1;strokeColor=none;fillColor=none;fontSize=18;fontColor=#67AB9F;labelBorderColor=none;" parent="1" vertex="1">
          <mxGeometry x="510" y="270" width="240" height="40" as="geometry" />
        </mxCell>
        <mxCell id="8nkHCdUd3SIOLFDqEudt-16" style="edgeStyle=none;rounded=0;orthogonalLoop=1;jettySize=auto;html=1;dashed=1;fontSize=18;fontColor=#67AB9F;elbow=vertical;" parent="1" source="8nkHCdUd3SIOLFDqEudt-6" edge="1">
          <mxGeometry relative="1" as="geometry">
            <mxPoint x="310" y="290" as="targetPoint" />
          </mxGeometry>
        </mxCell>
        <mxCell id="8nkHCdUd3SIOLFDqEudt-6" value="didies://flutter/flight?page=flightOrderDetailPage" style="text;html=1;align=center;verticalAlign=middle;resizable=0;points=[];autosize=1;strokeColor=none;fillColor=none;fontSize=18;fontColor=#67AB9F;labelBorderColor=none;spacing=0;fontStyle=0" parent="1" vertex="1">
          <mxGeometry x="-165" y="275" width="400" height="30" as="geometry" />
        </mxCell>
        <mxCell id="8nkHCdUd3SIOLFDqEudt-17" style="edgeStyle=none;rounded=0;orthogonalLoop=1;jettySize=auto;html=1;dashed=1;fontSize=18;fontColor=#67AB9F;elbow=vertical;" parent="1" source="8nkHCdUd3SIOLFDqEudt-14" edge="1">
          <mxGeometry relative="1" as="geometry">
            <mxPoint x="310" y="350" as="targetPoint" />
          </mxGeometry>
        </mxCell>
        <mxCell id="8nkHCdUd3SIOLFDqEudt-14" value="&lt;span style=&quot;font-family: &amp;quot;PingFang SC&amp;quot;, Helvetica, Tahoma, Arial, &amp;quot;Hiragino Sans GB&amp;quot;, &amp;quot;Microsoft YaHei&amp;quot;, SimSun, Heiti, sans-serif; text-align: left; background-color: rgb(255, 255, 255);&quot;&gt;esapp://native?target=DEBaseJourneyHistoryViewController&lt;/span&gt;" style="text;html=1;align=center;verticalAlign=middle;resizable=0;points=[];autosize=1;strokeColor=none;fillColor=none;fontSize=18;fontColor=#67AB9F;labelBorderColor=none;" parent="1" vertex="1">
          <mxGeometry x="-295" y="330" width="530" height="40" as="geometry" />
        </mxCell>
        <mxCell id="8nkHCdUd3SIOLFDqEudt-18" style="edgeStyle=none;rounded=0;orthogonalLoop=1;jettySize=auto;html=1;entryX=0.004;entryY=0.625;entryDx=0;entryDy=0;entryPerimeter=0;dashed=1;fontSize=18;fontColor=#67AB9F;elbow=vertical;exitX=1.017;exitY=0.694;exitDx=0;exitDy=0;exitPerimeter=0;" parent="1" edge="1">
          <mxGeometry relative="1" as="geometry">
            <mxPoint x="449.03999999999996" y="348.91999999999996" as="sourcePoint" />
            <mxPoint x="517.96" y="349" as="targetPoint" />
          </mxGeometry>
        </mxCell>
        <mxCell id="8nkHCdUd3SIOLFDqEudt-19" value="esapp://miniapp/order" style="text;html=1;align=center;verticalAlign=middle;resizable=0;points=[];autosize=1;strokeColor=none;fillColor=none;fontSize=18;fontColor=#67AB9F;labelBorderColor=none;spacing=0;" parent="1" vertex="1">
          <mxGeometry x="515" y="335" width="190" height="30" as="geometry" />
        </mxCell>
      </root>
    </mxGraphModel>
  </diagram>
  <diagram id="CY40RnnqgA9LvRYp0rec" name="前置处理">
    <mxGraphModel dx="1106" dy="614" grid="1" gridSize="10" guides="1" tooltips="1" connect="1" arrows="1" fold="1" page="1" pageScale="1" pageWidth="827" pageHeight="1169" math="0" shadow="0">
      <root>
        <mxCell id="0" />
        <mxCell id="1" parent="0" />
        <mxCell id="8mbF8J_81Mg_85j0jISC-2" style="edgeStyle=orthogonalEdgeStyle;rounded=0;orthogonalLoop=1;jettySize=auto;html=1;entryX=0;entryY=0.5;entryDx=0;entryDy=0;" edge="1" parent="1" source="K-QiQ-kZMShPLJJKjQ24-1" target="K-QiQ-kZMShPLJJKjQ24-2">
          <mxGeometry relative="1" as="geometry" />
        </mxCell>
        <mxCell id="8mbF8J_81Mg_85j0jISC-3" style="edgeStyle=orthogonalEdgeStyle;rounded=0;orthogonalLoop=1;jettySize=auto;html=1;entryX=0;entryY=0.5;entryDx=0;entryDy=0;" edge="1" parent="1" source="K-QiQ-kZMShPLJJKjQ24-1" target="8mbF8J_81Mg_85j0jISC-1">
          <mxGeometry relative="1" as="geometry" />
        </mxCell>
        <mxCell id="K-QiQ-kZMShPLJJKjQ24-1" value="用车 scheme" style="whiteSpace=wrap;html=1;labelBorderColor=none;fontSize=18;" parent="1" vertex="1">
          <mxGeometry x="10" y="410" width="130" height="50" as="geometry" />
        </mxCell>
        <mxCell id="e9M2ZIJS5MW-sw6GER-z-8" style="edgeStyle=orthogonalEdgeStyle;rounded=0;orthogonalLoop=1;jettySize=auto;html=1;entryX=0;entryY=0.5;entryDx=0;entryDy=0;fontSize=18;fontColor=#67AB9F;elbow=vertical;" parent="1" source="K-QiQ-kZMShPLJJKjQ24-2" target="e9M2ZIJS5MW-sw6GER-z-1" edge="1">
          <mxGeometry relative="1" as="geometry" />
        </mxCell>
        <mxCell id="e9M2ZIJS5MW-sw6GER-z-16" style="edgeStyle=orthogonalEdgeStyle;rounded=0;orthogonalLoop=1;jettySize=auto;html=1;entryX=0;entryY=0.5;entryDx=0;entryDy=0;fontSize=16;fontColor=#67AB9F;elbow=vertical;" parent="1" source="K-QiQ-kZMShPLJJKjQ24-2" target="e9M2ZIJS5MW-sw6GER-z-2" edge="1">
          <mxGeometry relative="1" as="geometry" />
        </mxCell>
        <mxCell id="K-QiQ-kZMShPLJJKjQ24-2" value="intercept" style="whiteSpace=wrap;html=1;labelBorderColor=none;fontSize=18;" parent="1" vertex="1">
          <mxGeometry x="220" y="280" width="120" height="50" as="geometry" />
        </mxCell>
        <mxCell id="e9M2ZIJS5MW-sw6GER-z-12" style="edgeStyle=orthogonalEdgeStyle;rounded=0;orthogonalLoop=1;jettySize=auto;html=1;entryX=0;entryY=0.5;entryDx=0;entryDy=0;fontSize=18;fontColor=#67AB9F;elbow=vertical;" parent="1" source="e9M2ZIJS5MW-sw6GER-z-1" target="e9M2ZIJS5MW-sw6GER-z-6" edge="1">
          <mxGeometry relative="1" as="geometry" />
        </mxCell>
        <mxCell id="e9M2ZIJS5MW-sw6GER-z-13" style="edgeStyle=orthogonalEdgeStyle;rounded=0;orthogonalLoop=1;jettySize=auto;html=1;entryX=0;entryY=0.5;entryDx=0;entryDy=0;fontSize=18;fontColor=#67AB9F;elbow=vertical;" parent="1" source="e9M2ZIJS5MW-sw6GER-z-1" target="e9M2ZIJS5MW-sw6GER-z-3" edge="1">
          <mxGeometry relative="1" as="geometry" />
        </mxCell>
        <mxCell id="e9M2ZIJS5MW-sw6GER-z-1" value="native" style="whiteSpace=wrap;html=1;labelBorderColor=none;fontSize=18;" parent="1" vertex="1">
          <mxGeometry x="440" y="190" width="120" height="50" as="geometry" />
        </mxCell>
        <mxCell id="e9M2ZIJS5MW-sw6GER-z-14" style="edgeStyle=orthogonalEdgeStyle;rounded=0;orthogonalLoop=1;jettySize=auto;html=1;entryX=0;entryY=0.5;entryDx=0;entryDy=0;fontSize=18;fontColor=#67AB9F;elbow=vertical;" parent="1" source="e9M2ZIJS5MW-sw6GER-z-2" target="e9M2ZIJS5MW-sw6GER-z-10" edge="1">
          <mxGeometry relative="1" as="geometry" />
        </mxCell>
        <mxCell id="e9M2ZIJS5MW-sw6GER-z-15" style="edgeStyle=orthogonalEdgeStyle;rounded=0;orthogonalLoop=1;jettySize=auto;html=1;entryX=0;entryY=0.5;entryDx=0;entryDy=0;fontSize=18;fontColor=#67AB9F;elbow=vertical;" parent="1" source="e9M2ZIJS5MW-sw6GER-z-2" target="e9M2ZIJS5MW-sw6GER-z-11" edge="1">
          <mxGeometry relative="1" as="geometry" />
        </mxCell>
        <mxCell id="e9M2ZIJS5MW-sw6GER-z-2" value="h5" style="whiteSpace=wrap;html=1;labelBorderColor=none;fontSize=18;" parent="1" vertex="1">
          <mxGeometry x="440" y="370" width="120" height="50" as="geometry" />
        </mxCell>
        <mxCell id="e9M2ZIJS5MW-sw6GER-z-3" value="前置处理" style="whiteSpace=wrap;html=1;labelBorderColor=none;fontSize=16;" parent="1" vertex="1">
          <mxGeometry x="630" y="150" width="120" height="50" as="geometry" />
        </mxCell>
        <mxCell id="e9M2ZIJS5MW-sw6GER-z-6" value="页面跳转" style="whiteSpace=wrap;html=1;labelBorderColor=none;fontSize=16;" parent="1" vertex="1">
          <mxGeometry x="630" y="220" width="120" height="50" as="geometry" />
        </mxCell>
        <mxCell id="e9M2ZIJS5MW-sw6GER-z-10" value="前置处理" style="whiteSpace=wrap;html=1;labelBorderColor=none;fontSize=16;" parent="1" vertex="1">
          <mxGeometry x="630" y="340" width="120" height="50" as="geometry" />
        </mxCell>
        <mxCell id="e9M2ZIJS5MW-sw6GER-z-11" value="页面跳转" style="whiteSpace=wrap;html=1;labelBorderColor=none;fontSize=16;" parent="1" vertex="1">
          <mxGeometry x="630" y="410" width="120" height="50" as="geometry" />
        </mxCell>
        <mxCell id="8mbF8J_81Mg_85j0jISC-1" value="页面跳转" style="whiteSpace=wrap;html=1;labelBorderColor=none;fontSize=18;" vertex="1" parent="1">
          <mxGeometry x="220" y="510" width="120" height="50" as="geometry" />
        </mxCell>
      </root>
    </mxGraphModel>
  </diagram>
  <diagram id="qIdcDjwDj3UZT8pqLWE8" name="兜底方案">
    <mxGraphModel dx="1106" dy="614" grid="1" gridSize="10" guides="1" tooltips="1" connect="1" arrows="1" fold="1" page="1" pageScale="1" pageWidth="827" pageHeight="1169" math="0" shadow="0">
      <root>
        <mxCell id="0" />
        <mxCell id="1" parent="0" />
        <mxCell id="L2r9JU3wFJVdacVyM0TD-3" style="edgeStyle=orthogonalEdgeStyle;rounded=0;orthogonalLoop=1;jettySize=auto;html=1;entryX=0;entryY=0.5;entryDx=0;entryDy=0;strokeColor=#000000;strokeWidth=1;" edge="1" parent="1" source="DKqQbRdeW2jOu4wajo9d-3" target="L2r9JU3wFJVdacVyM0TD-2">
          <mxGeometry relative="1" as="geometry" />
        </mxCell>
        <mxCell id="DKqQbRdeW2jOu4wajo9d-3" value="esapp://miniapp/path/subPath" style="whiteSpace=wrap;html=1;" parent="1" vertex="1">
          <mxGeometry x="140" y="177" width="210" height="50" as="geometry" />
        </mxCell>
        <mxCell id="DKqQbRdeW2jOu4wajo9d-35" style="edgeStyle=orthogonalEdgeStyle;rounded=0;orthogonalLoop=1;jettySize=auto;html=1;entryX=1;entryY=0.5;entryDx=0;entryDy=0;" parent="1" source="DKqQbRdeW2jOu4wajo9d-5" target="DKqQbRdeW2jOu4wajo9d-9" edge="1">
          <mxGeometry relative="1" as="geometry">
            <mxPoint x="614" y="350" as="targetPoint" />
          </mxGeometry>
        </mxCell>
        <mxCell id="DKqQbRdeW2jOu4wajo9d-40" value="否" style="edgeLabel;html=1;align=center;verticalAlign=middle;resizable=0;points=[];" parent="DKqQbRdeW2jOu4wajo9d-35" vertex="1" connectable="0">
          <mxGeometry x="-0.05" y="-3" relative="1" as="geometry">
            <mxPoint as="offset" />
          </mxGeometry>
        </mxCell>
        <mxCell id="DKqQbRdeW2jOu4wajo9d-38" style="edgeStyle=orthogonalEdgeStyle;rounded=0;orthogonalLoop=1;jettySize=auto;html=1;" parent="1" source="DKqQbRdeW2jOu4wajo9d-5" target="DKqQbRdeW2jOu4wajo9d-6" edge="1">
          <mxGeometry relative="1" as="geometry" />
        </mxCell>
        <mxCell id="DKqQbRdeW2jOu4wajo9d-39" value="是" style="edgeLabel;html=1;align=center;verticalAlign=middle;resizable=0;points=[];" parent="DKqQbRdeW2jOu4wajo9d-38" vertex="1" connectable="0">
          <mxGeometry x="-0.2" y="-1" relative="1" as="geometry">
            <mxPoint as="offset" />
          </mxGeometry>
        </mxCell>
        <mxCell id="DKqQbRdeW2jOu4wajo9d-5" value="能否跳转" style="rhombus;whiteSpace=wrap;html=1;" parent="1" vertex="1">
          <mxGeometry x="680" y="310" width="80" height="80" as="geometry" />
        </mxCell>
        <mxCell id="DKqQbRdeW2jOu4wajo9d-6" value="跳转页面" style="whiteSpace=wrap;html=1;" parent="1" vertex="1">
          <mxGeometry x="660" y="440" width="120" height="50" as="geometry" />
        </mxCell>
        <mxCell id="DKqQbRdeW2jOu4wajo9d-37" style="edgeStyle=orthogonalEdgeStyle;rounded=0;orthogonalLoop=1;jettySize=auto;html=1;entryX=1;entryY=0.5;entryDx=0;entryDy=0;dashed=1;strokeColor=#82B366;strokeWidth=2;" parent="1" source="DKqQbRdeW2jOu4wajo9d-9" target="DKqQbRdeW2jOu4wajo9d-10" edge="1">
          <mxGeometry relative="1" as="geometry" />
        </mxCell>
        <mxCell id="DKqQbRdeW2jOu4wajo9d-9" value="告警" style="whiteSpace=wrap;html=1;" parent="1" vertex="1">
          <mxGeometry x="470" y="323" width="100" height="50" as="geometry" />
        </mxCell>
        <mxCell id="L2r9JU3wFJVdacVyM0TD-10" style="edgeStyle=orthogonalEdgeStyle;rounded=0;orthogonalLoop=1;jettySize=auto;html=1;strokeColor=#000000;strokeWidth=1;" edge="1" parent="1" source="DKqQbRdeW2jOu4wajo9d-10" target="L2r9JU3wFJVdacVyM0TD-2">
          <mxGeometry relative="1" as="geometry">
            <Array as="points">
              <mxPoint x="245" y="270" />
              <mxPoint x="530" y="270" />
            </Array>
          </mxGeometry>
        </mxCell>
        <mxCell id="DKqQbRdeW2jOu4wajo9d-10" value="ab 配置拦截策略" style="whiteSpace=wrap;html=1;" parent="1" vertex="1">
          <mxGeometry x="185" y="323" width="120" height="50" as="geometry" />
        </mxCell>
        <mxCell id="DKqQbRdeW2jOu4wajo9d-42" style="edgeStyle=orthogonalEdgeStyle;rounded=0;orthogonalLoop=1;jettySize=auto;html=1;entryX=0.5;entryY=1;entryDx=0;entryDy=0;" parent="1" source="DKqQbRdeW2jOu4wajo9d-16" target="DKqQbRdeW2jOu4wajo9d-10" edge="1">
          <mxGeometry relative="1" as="geometry" />
        </mxCell>
        <mxCell id="DKqQbRdeW2jOu4wajo9d-16" value="User" style="shape=umlActor;verticalLabelPosition=bottom;verticalAlign=top;html=1;outlineConnect=0;" parent="1" vertex="1">
          <mxGeometry x="230" y="430" width="30" height="60" as="geometry" />
        </mxCell>
        <mxCell id="DKqQbRdeW2jOu4wajo9d-29" style="edgeStyle=orthogonalEdgeStyle;rounded=0;orthogonalLoop=1;jettySize=auto;html=1;entryX=0;entryY=0.5;entryDx=0;entryDy=0;" parent="1" source="DKqQbRdeW2jOu4wajo9d-27" target="DKqQbRdeW2jOu4wajo9d-3" edge="1">
          <mxGeometry relative="1" as="geometry">
            <mxPoint x="140" y="202" as="targetPoint" />
          </mxGeometry>
        </mxCell>
        <mxCell id="DKqQbRdeW2jOu4wajo9d-27" value="用户点击" style="ellipse;whiteSpace=wrap;html=1;" parent="1" vertex="1">
          <mxGeometry y="172" width="102" height="60" as="geometry" />
        </mxCell>
        <mxCell id="L2r9JU3wFJVdacVyM0TD-5" style="edgeStyle=orthogonalEdgeStyle;rounded=0;orthogonalLoop=1;jettySize=auto;html=1;entryX=0;entryY=0.5;entryDx=0;entryDy=0;strokeColor=#000000;strokeWidth=1;" edge="1" parent="1" source="L2r9JU3wFJVdacVyM0TD-2" target="L2r9JU3wFJVdacVyM0TD-4">
          <mxGeometry relative="1" as="geometry" />
        </mxCell>
        <mxCell id="L2r9JU3wFJVdacVyM0TD-2" value="Router 拦截器" style="whiteSpace=wrap;html=1;" vertex="1" parent="1">
          <mxGeometry x="480" y="177" width="100" height="50" as="geometry" />
        </mxCell>
        <mxCell id="L2r9JU3wFJVdacVyM0TD-6" style="edgeStyle=orthogonalEdgeStyle;rounded=0;orthogonalLoop=1;jettySize=auto;html=1;entryX=0.5;entryY=0;entryDx=0;entryDy=0;strokeColor=#000000;strokeWidth=1;" edge="1" parent="1" source="L2r9JU3wFJVdacVyM0TD-4" target="DKqQbRdeW2jOu4wajo9d-5">
          <mxGeometry relative="1" as="geometry" />
        </mxCell>
        <mxCell id="L2r9JU3wFJVdacVyM0TD-7" value="否" style="edgeLabel;html=1;align=center;verticalAlign=middle;resizable=0;points=[];" vertex="1" connectable="0" parent="L2r9JU3wFJVdacVyM0TD-6">
          <mxGeometry x="-0.0294" relative="1" as="geometry">
            <mxPoint as="offset" />
          </mxGeometry>
        </mxCell>
        <mxCell id="L2r9JU3wFJVdacVyM0TD-9" style="edgeStyle=orthogonalEdgeStyle;rounded=0;orthogonalLoop=1;jettySize=auto;html=1;entryX=0;entryY=0.5;entryDx=0;entryDy=0;strokeColor=#000000;strokeWidth=1;" edge="1" parent="1" source="L2r9JU3wFJVdacVyM0TD-4" target="L2r9JU3wFJVdacVyM0TD-8">
          <mxGeometry relative="1" as="geometry" />
        </mxCell>
        <mxCell id="L2r9JU3wFJVdacVyM0TD-11" value="是" style="edgeLabel;html=1;align=center;verticalAlign=middle;resizable=0;points=[];" vertex="1" connectable="0" parent="L2r9JU3wFJVdacVyM0TD-9">
          <mxGeometry x="-0.0333" y="1" relative="1" as="geometry">
            <mxPoint as="offset" />
          </mxGeometry>
        </mxCell>
        <mxCell id="L2r9JU3wFJVdacVyM0TD-4" value="是否拦截" style="rhombus;whiteSpace=wrap;html=1;" vertex="1" parent="1">
          <mxGeometry x="680" y="162" width="80" height="80" as="geometry" />
        </mxCell>
        <mxCell id="L2r9JU3wFJVdacVyM0TD-8" value="拦截处理" style="whiteSpace=wrap;html=1;" vertex="1" parent="1">
          <mxGeometry x="820" y="177" width="120" height="50" as="geometry" />
        </mxCell>
      </root>
    </mxGraphModel>
  </diagram>
  <diagram id="RWMC4Z14HZtG9V_FDjLg" name="跳转时序图">
    <mxGraphModel dx="922" dy="512" grid="1" gridSize="10" guides="1" tooltips="1" connect="1" arrows="1" fold="1" page="1" pageScale="1" pageWidth="827" pageHeight="1169" math="0" shadow="0">
      <root>
        <mxCell id="0" />
        <mxCell id="1" parent="0" />
        <mxCell id="0HBOyH5522ebXIkUe7k9-1" value="Actor" style="shape=umlLifeline;participant=umlActor;perimeter=lifelinePerimeter;whiteSpace=wrap;html=1;container=1;collapsible=0;recursiveResize=0;verticalAlign=top;spacingTop=36;outlineConnect=0;" vertex="1" parent="1">
          <mxGeometry x="120" y="80" width="20" height="440" as="geometry" />
        </mxCell>
        <mxCell id="0HBOyH5522ebXIkUe7k9-21" value="点击接入点" style="endArrow=block;endFill=1;html=1;edgeStyle=orthogonalEdgeStyle;align=left;verticalAlign=top;rounded=0;strokeColor=#000000;strokeWidth=1;fontSize=10;entryX=-0.2;entryY=0.053;entryDx=0;entryDy=0;entryPerimeter=0;" edge="1" parent="0HBOyH5522ebXIkUe7k9-1" target="0HBOyH5522ebXIkUe7k9-7">
          <mxGeometry x="-0.5" y="20" relative="1" as="geometry">
            <mxPoint x="10" y="90" as="sourcePoint" />
            <mxPoint x="170" y="90" as="targetPoint" />
            <mxPoint as="offset" />
          </mxGeometry>
        </mxCell>
        <mxCell id="0HBOyH5522ebXIkUe7k9-2" value="ESRouter" style="shape=umlLifeline;perimeter=lifelinePerimeter;whiteSpace=wrap;html=1;container=1;collapsible=0;recursiveResize=0;outlineConnect=0;" vertex="1" parent="1">
          <mxGeometry x="240" y="80" width="100" height="440" as="geometry" />
        </mxCell>
        <mxCell id="0HBOyH5522ebXIkUe7k9-7" value="" style="html=1;points=[];perimeter=orthogonalPerimeter;" vertex="1" parent="0HBOyH5522ebXIkUe7k9-2">
          <mxGeometry x="45" y="70" width="10" height="370" as="geometry" />
        </mxCell>
        <mxCell id="0HBOyH5522ebXIkUe7k9-8" value="intercept" style="edgeStyle=orthogonalEdgeStyle;html=1;align=left;spacingLeft=2;endArrow=block;rounded=0;strokeColor=#000000;strokeWidth=1;exitX=0.99;exitY=0.062;exitDx=0;exitDy=0;exitPerimeter=0;" edge="1" parent="0HBOyH5522ebXIkUe7k9-2" source="0HBOyH5522ebXIkUe7k9-7">
          <mxGeometry x="-0.7673" relative="1" as="geometry">
            <mxPoint x="60" y="100" as="sourcePoint" />
            <Array as="points">
              <mxPoint x="140" y="100" />
              <mxPoint x="140" y="140" />
            </Array>
            <mxPoint x="55" y="140" as="targetPoint" />
            <mxPoint as="offset" />
          </mxGeometry>
        </mxCell>
        <mxCell id="0HBOyH5522ebXIkUe7k9-9" value="MiniAppManager" style="shape=umlLifeline;perimeter=lifelinePerimeter;whiteSpace=wrap;html=1;container=1;collapsible=0;recursiveResize=0;outlineConnect=0;" vertex="1" parent="1">
          <mxGeometry x="460" y="80" width="110" height="440" as="geometry" />
        </mxCell>
        <mxCell id="0HBOyH5522ebXIkUe7k9-14" value="" style="html=1;points=[];perimeter=orthogonalPerimeter;fontSize=10;" vertex="1" parent="0HBOyH5522ebXIkUe7k9-9">
          <mxGeometry x="50" y="180" width="10" height="80" as="geometry" />
        </mxCell>
        <mxCell id="0HBOyH5522ebXIkUe7k9-13" value="&lt;font style=&quot;font-size: 10px;&quot;&gt;ContainerManager&lt;/font&gt;" style="shape=umlLifeline;perimeter=lifelinePerimeter;whiteSpace=wrap;html=1;container=1;collapsible=0;recursiveResize=0;outlineConnect=0;fontSize=11;" vertex="1" parent="1">
          <mxGeometry x="650" y="80" width="120" height="440" as="geometry" />
        </mxCell>
        <mxCell id="0HBOyH5522ebXIkUe7k9-17" value="" style="html=1;points=[];perimeter=orthogonalPerimeter;fontSize=10;" vertex="1" parent="0HBOyH5522ebXIkUe7k9-13">
          <mxGeometry x="55" y="297" width="10" height="80" as="geometry" />
        </mxCell>
        <mxCell id="0HBOyH5522ebXIkUe7k9-15" value="获取 miniApp 信息" style="html=1;verticalAlign=bottom;endArrow=block;entryX=0;entryY=0;rounded=0;strokeColor=#000000;strokeWidth=1;fontSize=10;" edge="1" target="0HBOyH5522ebXIkUe7k9-14" parent="1" source="0HBOyH5522ebXIkUe7k9-7">
          <mxGeometry relative="1" as="geometry">
            <mxPoint x="300" y="260" as="sourcePoint" />
          </mxGeometry>
        </mxCell>
        <mxCell id="0HBOyH5522ebXIkUe7k9-16" value="返回结果" style="html=1;verticalAlign=bottom;endArrow=open;dashed=1;endSize=8;exitX=0;exitY=0.95;rounded=0;strokeColor=#000000;strokeWidth=1;fontSize=10;entryX=0.895;entryY=0.499;entryDx=0;entryDy=0;entryPerimeter=0;" edge="1" source="0HBOyH5522ebXIkUe7k9-14" parent="1" target="0HBOyH5522ebXIkUe7k9-7">
          <mxGeometry relative="1" as="geometry">
            <mxPoint x="440" y="336" as="targetPoint" />
          </mxGeometry>
        </mxCell>
        <mxCell id="0HBOyH5522ebXIkUe7k9-18" value="调用方法跳转" style="html=1;verticalAlign=bottom;endArrow=block;entryX=0;entryY=0;rounded=0;strokeColor=#000000;strokeWidth=1;fontSize=10;exitX=1.038;exitY=0.614;exitDx=0;exitDy=0;exitPerimeter=0;" edge="1" target="0HBOyH5522ebXIkUe7k9-17" parent="1" source="0HBOyH5522ebXIkUe7k9-7">
          <mxGeometry relative="1" as="geometry">
            <mxPoint x="289.6666666666665" y="376.9999999999999" as="sourcePoint" />
          </mxGeometry>
        </mxCell>
        <mxCell id="0HBOyH5522ebXIkUe7k9-19" value="返回结果" style="html=1;verticalAlign=bottom;endArrow=open;dashed=1;endSize=8;exitX=0;exitY=0.95;rounded=0;strokeColor=#000000;strokeWidth=1;fontSize=10;entryX=0.895;entryY=0.817;entryDx=0;entryDy=0;entryPerimeter=0;" edge="1" source="0HBOyH5522ebXIkUe7k9-17" parent="1" target="0HBOyH5522ebXIkUe7k9-7">
          <mxGeometry relative="1" as="geometry">
            <mxPoint x="289.6666666666665" y="453" as="targetPoint" />
          </mxGeometry>
        </mxCell>
      </root>
    </mxGraphModel>
  </diagram>
  <diagram id="9coYymmvUY9e2zoQcr99" name="第 7 页">
    <mxGraphModel dx="922" dy="512" grid="1" gridSize="10" guides="1" tooltips="1" connect="1" arrows="1" fold="1" page="1" pageScale="1" pageWidth="827" pageHeight="1169" math="0" shadow="0">
      <root>
        <mxCell id="0" />
        <mxCell id="1" parent="0" />
        <mxCell id="aV_UF9snpilfMIITpf5e-29" style="edgeStyle=orthogonalEdgeStyle;rounded=0;orthogonalLoop=1;jettySize=auto;html=1;strokeColor=default;strokeWidth=1;fontSize=10;startArrow=diamondThin;startFill=0;exitX=1.007;exitY=0.022;exitDx=0;exitDy=0;exitPerimeter=0;entryX=-0.013;entryY=0.547;entryDx=0;entryDy=0;entryPerimeter=0;" edge="1" parent="1" source="aV_UF9snpilfMIITpf5e-2" target="aV_UF9snpilfMIITpf5e-19">
          <mxGeometry relative="1" as="geometry">
            <mxPoint x="285" y="198.5" as="sourcePoint" />
            <mxPoint x="500" y="197" as="targetPoint" />
            <Array as="points">
              <mxPoint x="285" y="197" />
            </Array>
          </mxGeometry>
        </mxCell>
        <mxCell id="aV_UF9snpilfMIITpf5e-1" value="ESRouter" style="swimlane;fontStyle=1;align=center;verticalAlign=top;childLayout=stackLayout;horizontal=1;startSize=26;horizontalStack=0;resizeParent=1;resizeParentMax=0;resizeLast=0;collapsible=1;marginBottom=0;fontSize=10;" vertex="1" parent="1">
          <mxGeometry x="110" y="170" width="160" height="112" as="geometry" />
        </mxCell>
        <mxCell id="aV_UF9snpilfMIITpf5e-2" value="+ shareInstance" style="text;strokeColor=none;fillColor=none;align=left;verticalAlign=top;spacingLeft=4;spacingRight=4;overflow=hidden;rotatable=0;points=[[0,0.5],[1,0.5]];portConstraint=eastwest;fontSize=10;" vertex="1" parent="aV_UF9snpilfMIITpf5e-1">
          <mxGeometry y="26" width="160" height="26" as="geometry" />
        </mxCell>
        <mxCell id="aV_UF9snpilfMIITpf5e-3" value="" style="line;strokeWidth=1;fillColor=none;align=left;verticalAlign=middle;spacingTop=-1;spacingLeft=3;spacingRight=3;rotatable=0;labelPosition=right;points=[];portConstraint=eastwest;strokeColor=inherit;fontSize=10;" vertex="1" parent="aV_UF9snpilfMIITpf5e-1">
          <mxGeometry y="52" width="160" height="8" as="geometry" />
        </mxCell>
        <mxCell id="aV_UF9snpilfMIITpf5e-4" value="+ openRoute(String)" style="text;strokeColor=none;fillColor=none;align=left;verticalAlign=top;spacingLeft=4;spacingRight=4;overflow=hidden;rotatable=0;points=[[0,0.5],[1,0.5]];portConstraint=eastwest;fontSize=10;" vertex="1" parent="aV_UF9snpilfMIITpf5e-1">
          <mxGeometry y="60" width="160" height="26" as="geometry" />
        </mxCell>
        <mxCell id="aV_UF9snpilfMIITpf5e-18" value="+ schemeAdapter(String)" style="text;strokeColor=none;fillColor=none;align=left;verticalAlign=top;spacingLeft=4;spacingRight=4;overflow=hidden;rotatable=0;points=[[0,0.5],[1,0.5]];portConstraint=eastwest;fontSize=10;" vertex="1" parent="aV_UF9snpilfMIITpf5e-1">
          <mxGeometry y="86" width="160" height="26" as="geometry" />
        </mxCell>
        <mxCell id="aV_UF9snpilfMIITpf5e-26" style="edgeStyle=orthogonalEdgeStyle;rounded=0;orthogonalLoop=1;jettySize=auto;html=1;entryX=0.5;entryY=1;entryDx=0;entryDy=0;strokeColor=#000000;strokeWidth=1;fontSize=10;" edge="1" parent="1" source="aV_UF9snpilfMIITpf5e-8" target="aV_UF9snpilfMIITpf5e-19">
          <mxGeometry relative="1" as="geometry">
            <Array as="points">
              <mxPoint x="430" y="270" />
              <mxPoint x="635" y="270" />
            </Array>
          </mxGeometry>
        </mxCell>
        <mxCell id="aV_UF9snpilfMIITpf5e-8" value="ESGeneralViewableRouter" style="swimlane;fontStyle=0;childLayout=stackLayout;horizontal=1;startSize=26;fillColor=none;horizontalStack=0;resizeParent=1;resizeParentMax=0;resizeLast=0;collapsible=1;marginBottom=0;fontSize=10;" vertex="1" parent="1">
          <mxGeometry x="350" y="320" width="160" height="78" as="geometry" />
        </mxCell>
        <mxCell id="aV_UF9snpilfMIITpf5e-9" value="+ routerMapping" style="text;strokeColor=none;fillColor=none;align=left;verticalAlign=top;spacingLeft=4;spacingRight=4;overflow=hidden;rotatable=0;points=[[0,0.5],[1,0.5]];portConstraint=eastwest;fontSize=10;" vertex="1" parent="aV_UF9snpilfMIITpf5e-8">
          <mxGeometry y="26" width="160" height="26" as="geometry" />
        </mxCell>
        <mxCell id="aV_UF9snpilfMIITpf5e-10" value="+ interceptorWithPath" style="text;strokeColor=none;fillColor=none;align=left;verticalAlign=top;spacingLeft=4;spacingRight=4;overflow=hidden;rotatable=0;points=[[0,0.5],[1,0.5]];portConstraint=eastwest;fontSize=10;" vertex="1" parent="aV_UF9snpilfMIITpf5e-8">
          <mxGeometry y="52" width="160" height="26" as="geometry" />
        </mxCell>
        <mxCell id="aV_UF9snpilfMIITpf5e-28" style="edgeStyle=orthogonalEdgeStyle;rounded=0;orthogonalLoop=1;jettySize=auto;html=1;entryX=0.5;entryY=1;entryDx=0;entryDy=0;strokeColor=#000000;strokeWidth=1;fontSize=10;" edge="1" parent="1" source="aV_UF9snpilfMIITpf5e-15" target="aV_UF9snpilfMIITpf5e-19">
          <mxGeometry relative="1" as="geometry">
            <Array as="points">
              <mxPoint x="890" y="270" />
              <mxPoint x="635" y="270" />
            </Array>
          </mxGeometry>
        </mxCell>
        <mxCell id="aV_UF9snpilfMIITpf5e-15" value="ESMiniAppViewableRouter" style="swimlane;fontStyle=0;childLayout=stackLayout;horizontal=1;startSize=26;fillColor=none;horizontalStack=0;resizeParent=1;resizeParentMax=0;resizeLast=0;collapsible=1;marginBottom=0;fontSize=10;" vertex="1" parent="1">
          <mxGeometry x="780" y="320" width="160" height="78" as="geometry" />
        </mxCell>
        <mxCell id="aV_UF9snpilfMIITpf5e-16" value="+ routerMapping" style="text;strokeColor=none;fillColor=none;align=left;verticalAlign=top;spacingLeft=4;spacingRight=4;overflow=hidden;rotatable=0;points=[[0,0.5],[1,0.5]];portConstraint=eastwest;fontSize=10;" vertex="1" parent="aV_UF9snpilfMIITpf5e-15">
          <mxGeometry y="26" width="160" height="26" as="geometry" />
        </mxCell>
        <mxCell id="aV_UF9snpilfMIITpf5e-17" value="+ interceptorWithPath" style="text;strokeColor=none;fillColor=none;align=left;verticalAlign=top;spacingLeft=4;spacingRight=4;overflow=hidden;rotatable=0;points=[[0,0.5],[1,0.5]];portConstraint=eastwest;fontSize=10;" vertex="1" parent="aV_UF9snpilfMIITpf5e-15">
          <mxGeometry y="52" width="160" height="26" as="geometry" />
        </mxCell>
        <mxCell id="aV_UF9snpilfMIITpf5e-19" value="«interface»&lt;br&gt;&lt;b&gt;IONEViewableRouter&lt;/b&gt;" style="html=1;fontSize=10;" vertex="1" parent="1">
          <mxGeometry x="560" y="170" width="150" height="50" as="geometry" />
        </mxCell>
        <mxCell id="aV_UF9snpilfMIITpf5e-27" style="edgeStyle=orthogonalEdgeStyle;rounded=0;orthogonalLoop=1;jettySize=auto;html=1;entryX=0.5;entryY=1;entryDx=0;entryDy=0;strokeColor=#000000;strokeWidth=1;fontSize=10;" edge="1" parent="1" source="aV_UF9snpilfMIITpf5e-12" target="aV_UF9snpilfMIITpf5e-19">
          <mxGeometry relative="1" as="geometry" />
        </mxCell>
        <mxCell id="aV_UF9snpilfMIITpf5e-12" value="ESAnycarViewableRouter" style="swimlane;fontStyle=0;childLayout=stackLayout;horizontal=1;startSize=26;fillColor=none;horizontalStack=0;resizeParent=1;resizeParentMax=0;resizeLast=0;collapsible=1;marginBottom=0;fontSize=10;" vertex="1" parent="1">
          <mxGeometry x="555" y="320" width="160" height="78" as="geometry" />
        </mxCell>
        <mxCell id="aV_UF9snpilfMIITpf5e-13" value="+ routerMapping" style="text;strokeColor=none;fillColor=none;align=left;verticalAlign=top;spacingLeft=4;spacingRight=4;overflow=hidden;rotatable=0;points=[[0,0.5],[1,0.5]];portConstraint=eastwest;fontSize=10;" vertex="1" parent="aV_UF9snpilfMIITpf5e-12">
          <mxGeometry y="26" width="160" height="26" as="geometry" />
        </mxCell>
        <mxCell id="aV_UF9snpilfMIITpf5e-14" value="+ interceptorWithPath" style="text;strokeColor=none;fillColor=none;align=left;verticalAlign=top;spacingLeft=4;spacingRight=4;overflow=hidden;rotatable=0;points=[[0,0.5],[1,0.5]];portConstraint=eastwest;fontSize=10;" vertex="1" parent="aV_UF9snpilfMIITpf5e-12">
          <mxGeometry y="52" width="160" height="26" as="geometry" />
        </mxCell>
      </root>
    </mxGraphModel>
  </diagram>
</mxfile>
